#!OML:ASF E:\Steps\Project 1\Capture day 1\Session 2\Subject.ASF
:FULLY-SPECIFIED
:DEGREES
310
root 9.15766 14.7562 14.5238 -150.747 -2.7203 174.915
lowerback -9.04478 1.0256 -8.44984
upperback 3.2342 2.45624 -1.82903
thorax 8.28565 0.752514 3.1776
lowerneck -3.52513 1.34856 -0.619205
upperneck 9.29003 1.21501 4.28562
head 3.60571 0.655698 1.5691
rclavicle -1.33186e-014 3.59303e-014
rhumerus -21.2347 -1.86902 -79.5515
rradius 62.5164
rwrist -9.8
rhand -9.41697 -410.291
rfingers 7.12502
rthumb 16.545 -439.606
lclavicle -1.33186e-014 3.59303e-014
lhumerus -8.3386 -16.8089 55.7947
lradius 30.3492
lwrist 2.92874
lhand -24.3191 -16.0758
lfingers 7.12502
lthumb 2.16913 13.8929
rfemur -4.70851 10.692 -8.28609
rtibia 21.4311
rfoot -4.53513 -8.92036
rtoes -44.2117
lfemur -88.146 15.4723 -9.15854
ltibia 62.1753
lfoot -1.90235 1.01236
ltoes -41.1882
311
root 9.03192 14.866 14.4419 -149.838 -2.65021 175.827
lowerback -8.92128 1.21491 -8.2325
upperback 3.12279 2.66803 -1.78868
thorax 8.07272 0.881886 3.12677
lowerneck -3.79631 1.22015 -0.441159
upperneck 9.0716 1.00393 4.66946
head 3.58935 0.574856 1.65746
rclavicle -1.87479e-014 4.00054e-015
rhumerus -21.1495 -1.66063 -79.4738
rradius 63.0066
rwrist -9.66106
rhand -8.66685 -413.682
rfingers 7.12502
rthumb 17.2671 -442.935
lclavicle -1.87479e-014 4.00054e-015
lhumerus -6.56884 -17.366 54.9083
lradius 30.9116
lwrist 3.07326
lhand -24.4668 -15.7618
lfingers 7.12502
lthumb 2.02654 14.2083
rfemur -5.10444 11.1351 -8.20151
rtibia 19.2772
rfoot -0.474547 -9.13035
rtoes -43.3874
lfemur -88.5865 15.7162 -8.86447
ltibia 61.929
lfoot -2.13916 1.28189
ltoes -42.272
312
root 8.90624 14.9874 14.3655 -148.885 -2.4239 176.519
lowerback -8.65922 1.37487 -8.29271
upperback 2.92388 2.85205 -1.80697
thorax 7.68173 0.992516 3.15551
lowerneck -4.02549 1.11823 -0.283906
upperneck 8.89819 0.824798 5.03836
head 3.58023 0.506248 1.74585
rclavicle -2.38045e-014 -6.5102e-015
rhumerus -21.1462 -1.33879 -79.4479
rradius 63.5224
rwrist -9.79772
rhand -9.05878 -411.56
rfingers 7.12502
rthumb 16.8899 -440.846
lclavicle -2.38045e-014 -6.5102e-015
lhumerus -5.00343 -18.0009 54.1011
lradius 31.5577
lwrist 3.41768
lhand -24.8715 -15.0969
lfingers 7.12502
lthumb 1.63565 14.8766
rfemur -5.72969 11.6156 -8.44413
rtibia 17.3316
rfoot 3.48692 -9.5394
rtoes -42.0742
lfemur -88.9143 15.8871 -8.82364
ltibia 61.6844
lfoot -2.52365 1.46274
ltoes -42.9001
313
root 8.78075 15.1138 14.2922 -147.992 -2.07208 177.221
lowerback -8.53947 1.49208 -8.46677
upperback 2.85146 3.01027 -1.7311
thorax 7.50466 1.07114 3.34912
lowerneck -4.32036 0.947749 -0.095958
upperneck 8.71553 0.586319 5.12292
head 3.58186 0.402577 1.73148
rclavicle 5.96354e-016 -3.88127e-014
rhumerus -20.8947 -0.875524 -79.3195
rradius 63.7724
rwrist -10.2414
rhand -6.79465 -415.543
rfingers 7.12502
rthumb 19.0683 -444.629
lclavicle 5.96354e-016 -3.88127e-014
lhumerus -3.64752 -18.2137 53.4938
lradius 32.3021
lwrist 3.75892
lhand -25.4982 -14.7603
lfingers 7.12502
lthumb 1.03037 15.217
rfemur -6.72475 12.1246 -8.76144
rtibia 15.9983
rfoot 7.06141 -10.0098
rtoes -40.0361
lfemur -88.8624 16.1385 -8.67988
ltibia 60.998
lfoot -2.76404 1.74844
ltoes -42.8824
314
root 8.65767 15.245 14.2151 -147.147 -1.60697 177.98
lowerback -8.56486 1.56382 -8.78027
upperback 2.87443 3.14021 -1.5127
thorax 7.50378 1.11724 3.77472
lowerneck -4.63906 0.714826 -0.0487072
upperneck 8.40082 0.297861 5.13393
head 3.54306 0.269103 1.71325
rclavicle 2.07233e-014 -1.12313e-014
rhumerus -20.3981 -0.330165 -79.0614
rradius 63.478
rwrist -10.9225
rhand -11.6519 -409.245
rfingers 7.12502
rthumb 14.3925 -438.726
lclavicle 2.07233e-014 -1.12313e-014
lhumerus -2.51078 -18.3092 53.0588
lradius 33.0566
lwrist 4.759
lhand -26.1492 -14.7167
lfingers 7.12502
lthumb 0.401602 15.2627
rfemur -7.98883 12.7106 -9.10329
rtibia 15.0975
rfoot 10.1242 -10.6577
rtoes -37.6738
lfemur -88.6554 16.4614 -8.37915
ltibia 60.2568
lfoot -3.07822 2.24541
ltoes -42.2313
315
root 8.53515 15.3811 14.1382 -146.354 -1.11781 178.644
lowerback -8.553 1.60878 -9.15917
upperback 2.88818 3.23643 -1.32577
thorax 7.47273 1.14496 4.19705
lowerneck -4.72071 0.68023 -0.190006
upperneck 7.96121 0.285385 5.27684
head 3.40762 0.264647 1.78002
rclavicle 2.14687e-014 1.59028e-014
rhumerus -19.8484 0.214576 -78.8576
rradius 63.7525
rwrist -11.0653
rhand -11.6915 -411.004
rfingers 7.12502
rthumb 14.3543 -440.488
lclavicle 2.14687e-014 1.59028e-014
lhumerus -1.48859 -18.5371 52.6047
lradius 33.7402
lwrist 6.0569
lhand -26.8915 -14.7958
lfingers 7.12502
lthumb -0.315326 15.1837
rfemur -9.28344 13.2528 -9.53339
rtibia 14.3936
rfoot 12.6378 -11.6329
rtoes -34.4431
lfemur -88.3843 16.6771 -8.14034
ltibia 59.5118
lfoot -3.43494 2.75936
ltoes -41.7179
316
root 8.40777 15.5175 14.069 -145.563 -0.702904 179.255
lowerback -8.42099 1.6604 -9.34219
upperback 2.82089 3.30439 -1.25141
thorax 7.30151 1.17991 4.3794
lowerneck -4.71223 0.775796 -0.219398
upperneck 7.60546 0.433561 5.36572
head 3.2787 0.33805 1.81535
rclavicle -5.96354e-015 4.07509e-014
rhumerus -19.3979 0.469279 -78.8043
rradius 63.7205
rwrist -11.2223
rhand -10.7998 -412.121
rfingers 7.12502
rthumb 15.2133 -441.542
lclavicle -5.96354e-015 4.07509e-014
lhumerus -0.73014 -18.5239 52.1739
lradius 34.6084
lwrist 6.67978
lhand -27.3109 -15.1562
lfingers 7.12502
lthumb -0.720377 14.8223
rfemur -10.6168 13.3264 -9.93982
rtibia 13.8851
rfoot 14.8663 -12.3207
rtoes -32.5812
lfemur -88.0747 16.7463 -7.9468
ltibia 58.5831
lfoot -3.58485 3.25973
ltoes -41.7702
317
root 8.28254 15.6521 14.0021 -144.818 -0.374776 179.887
lowerback -8.20282 1.67759 -9.43928
upperback 2.72108 3.30424 -1.17109
thorax 7.05823 1.19109 4.50639
lowerneck -4.76619 0.83223 -0.175991
upperneck 7.28087 0.518448 5.4585
head 3.17504 0.382436 1.8373
rclavicle 6.95746e-015 -1.39149e-014
rhumerus -18.9659 0.572618 -78.8669
rradius 63.8554
rwrist -10.7591
rhand -9.6931 -413.255
rfingers 7.12502
rthumb 16.2792 -442.592
lclavicle 6.95746e-015 -1.39149e-014
lhumerus -0.288018 -18.2421 51.8373
lradius 35.6209
lwrist 7.05092
lhand -27.4847 -15.5348
lfingers 7.12502
lthumb -0.888242 14.4431
rfemur -12.0908 12.9876 -10.1699
rtibia 13.9305
rfoot 16.3384 -12.7554
rtoes -31.6661
lfemur -87.7707 16.7369 -7.6926
ltibia 57.8
lfoot -3.77049 3.76034
ltoes -41.9474
318
root 8.16541 15.7859 13.9307 -144.076 0.00517513 180.454
lowerback -8.17908 1.55801 -9.67532
upperback 2.64489 3.30008 -1.09258
thorax 6.95818 1.246 4.72644
lowerneck -4.71426 0.906248 -0.173083
upperneck 6.94669 0.631244 5.54659
head 3.04737 0.43677 1.86426
rclavicle -2.78299e-014 -2.3059e-014
rhumerus -18.613 0.597968 -78.9634
rradius 64.2273
rwrist -10.1814
rhand -6.69914 -412.508
rfingers 7.12502
rthumb 19.1602 -441.584
lclavicle -2.78299e-014 -2.3059e-014
lhumerus 0.117711 -17.8883 51.5778
lradius 36.3763
lwrist 7.50258
lhand -27.6194 -15.5384
lfingers 7.12502
lthumb -1.01831 14.4389
rfemur -13.9536 12.4156 -10.3556
rtibia 14.8763
rfoot 16.5255 -13.4652
rtoes -28.955
lfemur -87.4461 16.765 -7.51343
ltibia 57.09
lfoot -4.03699 4.22258
ltoes -42.1259
319
root 8.04856 15.9177 13.8529 -143.402 0.295481 180.967
lowerback -8.39194 1.45323 -9.80996
upperback 2.65035 3.19637 -1.04312
thorax 7.09443 1.17962 4.85148
lowerneck -4.53692 0.976885 -0.11416
upperneck 6.63157 0.736655 5.5931
head 2.90309 0.484481 1.86531
rclavicle -2.66371e-014 4.37326e-015
rhumerus -18.3074 0.70842 -79.2085
rradius 64.4787
rwrist -9.90794
rhand -7.76661 -412.07
rfingers 7.12502
rthumb 18.1334 -441.244
lclavicle -2.66371e-014 4.37326e-015
lhumerus 0.513332 -17.4852 51.3357
lradius 36.847
lwrist 7.96055
lhand -27.5214 -15.915
lfingers 7.12502
lthumb -0.92363 14.0628
rfemur -15.7786 11.6786 -10.3848
rtibia 16.13
rfoot 16.2818 -13.9219
rtoes -26.9457
lfemur -86.9966 16.6509 -7.25874
ltibia 56.2351
lfoot -4.29477 4.6665
ltoes -41.7657
320
root 7.93216 16.0469 13.7749 -142.916 0.406508 181.312
lowerback -8.61033 1.2488 -9.84763
upperback 2.79416 2.97044 -1.04846
thorax 7.41166 1.04775 4.8512
lowerneck -4.41683 1.02174 -0.0391633
upperneck 6.28371 0.800567 5.71056
head 2.76111 0.513331 1.88549
rclavicle 3.97569e-015 -2.06736e-014
rhumerus -17.7999 0.842542 -79.6569
rradius 64.3785
rwrist -9.77861
rhand -8.75484 -410.862
rfingers 7.12502
rthumb 17.1824 -440.122
lclavicle 3.97569e-015 -2.06736e-014
lhumerus 0.868513 -16.8938 51.0591
lradius 37.3055
lwrist 8.307
lhand -27.0356 -16.6008
lfingers 7.12502
lthumb -0.454495 13.3784
rfemur -17.1859 10.9188 -10.3397
rtibia 17.3604
rfoot 15.9555 -14.1826
rtoes -25.4242
lfemur -86.3889 16.2243 -7.01972
ltibia 55.316
lfoot -4.52519 5.02142
ltoes -41.0961
